<?xml version="1.0" encoding="UTF-8" standalone="no"?>
<svg
   id="Capa_1"
   version="1.1"
   viewBox="0 0 1080 474.99998"
   sodipodi:docname="Kelea.svg"
   width="1080"
   height="475"
   inkscape:version="1.4 (e7c3feb100, 2024-10-09)"
   xmlns:inkscape="http://www.inkscape.org/namespaces/inkscape"
   xmlns:sodipodi="http://sodipodi.sourceforge.net/DTD/sodipodi-0.dtd"
   xmlns="http://www.w3.org/2000/svg"
   xmlns:svg="http://www.w3.org/2000/svg">
  <sodipodi:namedview
     id="namedview5"
     pagecolor="#ffffff"
     bordercolor="#000000"
     borderopacity="0.25"
     inkscape:showpageshadow="2"
     inkscape:pageopacity="0.0"
     inkscape:pagecheckerboard="0"
     inkscape:deskcolor="#d1d1d1"
     inkscape:zoom="0.70710678"
     inkscape:cx="453.96255"
     inkscape:cy="354.9676"
     inkscape:window-width="1920"
     inkscape:window-height="1043"
     inkscape:window-x="0"
     inkscape:window-y="0"
     inkscape:window-maximized="1"
     inkscape:current-layer="Capa_1" />
  <!-- Generator: Adobe Illustrator 29.0.1, SVG Export Plug-In . SVG Version: 2.1.0 Build 192)  -->
  <defs
     id="defs1">
    <style
       id="style1">
      .st0 {
        fill: #ea5256;
      }
    </style>
  </defs>
  <path
     class="st0"
     d="M 92.67,84.195441 V 270.53544 l 1.58,-0.88 65.05,-85.39 h 71.47 l -77.24,91.33 81.38,110.2 h -68.7 c -23.88,-32.89 -45.59,-67.45 -69.52,-100.29 -1.14,-1.57 -2.37,-3.59 -4.02,-4.61 v 104.9 h -58 V 84.195441 Z"
     id="path1" />
  <path
     class="st0"
     d="m 940.59,385.80544 v -144.59 c -3.98,-72.66 -126.03,-76.54 -164,-34.18 -7.29,8.13 -16.22,26 -16.22,36.94 v 10.01 h 57.31 c -0.46,-25.88 22.49,-35.58 45.18,-29.63 20.62,5.41 28.28,28.07 5.6,37.23 -38.59,15.6 -109.23,3.09 -114.21,63.92 -5.52,67.53 84.25,83.9 120.76,43.41 3.39,-3.75 5.79,-8.21 8.96,-12.1 v 28.99 z m -58,-72.81 c 0,9.71 -10.69,22.69 -18.87,27.38 -13.96,7.99 -49.05,11.69 -50.9,-10.78 -1.19,-14.43 10.95,-18.46 22.52,-21.73 15.65,-4.41 32.31,-5.66 47.25,-12.47 v 17.61 z"
     id="path2" />
  <path
     class="st0"
     d="m 280.83,300.90544 h 146.05 c 5.76,-48.42 -15.85,-97.21 -63.36,-114.39 -61.85,-22.35 -127.32,11.9 -138.08,77.68 -13.46,82.29 49.39,141.26 130.87,122.52 33.14,-7.61 57.8,-31.52 66.41,-64.4 h -59.03 c -5.73,11.55 -14.46,17.18 -27.12,19.13 -19.59,3.03 -40.27,-3.15 -50.23,-21.19 -2.11,-3.84 -6.23,-13.79 -6.28,-17.92 0,-0.58 0.28,-1.42 0.77,-1.42 z m 39.32,-72.5 c 27.7,-1.81 45.98,11.11 50.78,38.69 h -90.45 c 3.35,-21.26 17.47,-37.22 39.67,-38.69 z"
     id="path3" />
  <path
     class="st0"
     d="m 593.62,300.90544 h 146.05 c 5.76,-48.42 -15.85,-97.21 -63.36,-114.39 -61.85,-22.35 -127.32,11.9 -138.07,77.68 -13.47,82.29 49.38,141.26 130.86,122.52 33.14,-7.61 57.8,-31.52 66.41,-64.4 h -59.03 c -5.73,11.55 -14.46,17.18 -27.12,19.13 -19.59,3.03 -40.27,-3.15 -50.23,-21.19 -2.11,-3.84 -6.23,-13.79 -6.28,-17.92 0,-0.58 0.28,-1.42 0.77,-1.42 z m 39.32,-72.5 c 27.7,-1.81 45.98,11.11 50.78,38.69 h -90.45 c 3.35,-21.26 17.47,-37.22 39.67,-38.69 z"
     id="path4" />
  <rect
     class="st0"
     x="453.10999"
     y="84.195442"
     width="58"
     height="301.60001"
     id="rect4" />
  <path
     class="st0"
     d="m 1021.14,333.58544 c 15.67,15.37 10.92,45.1 -9.65,53.71 -26.96,11.29 -54.28,-13 -45.16,-41 7.32,-22.5 38.48,-28.73 54.81,-12.71 z"
     id="path5" />
</svg>
